[img]http://img831.imageshack.us/img831/2931/blankn.png[/img]




[img]http://img816.imageshack.us/img816/4286/mxmg.jpg[/img]

[quote]
Format                           : AVI
Format/Info                      : Audio Video Interleave
File size                        : 701 MiB
Duration                         : 1h 52mn
Overall bit rate                 : 875 Kbps
Writing application              : VirtualDubMod 1.5.10.3 | www.virtualdub-fr.org || (build 2550/release)
Writing library                  : VirtualDubMod build 2550/release

Video
ID                               : 0
Format                           : MPEG-4 Visual
Format profile                   : Advanced Simple@L5
Format settings, BVOP            : 1
Format settings, QPel            : No
Format settings, GMC             : No warppoints
Format settings, Matrix          : Default (H.263)
Codec ID                         : XVID
Codec ID/Hint                    : XviD
Duration                         : 1h 52mn
Bit rate                         : 738 Kbps
Width                            : 640 pixels
Height                           : 384 pixels
Display aspect ratio             : 1.667
Frame rate                       : 23.976 fps
Color space                      : YUV
Chroma subsampling               : 4:2:0
Bit depth                        : 8 bits
Scan type                        : Progressive
Compression mode                 : Lossy
Bits/(Pixel*Frame)               : 0.125
Stream size                      : 591 MiB (84%)
Writing library                  : XviD 63

Audio
ID                               : 1
Format                           : MPEG Audio
Format version                   : Version 1
Format profile                   : Layer 3
Codec ID                         : 55
Codec ID/Hint                    : MP3
Duration                         : 1h 52mn
Bit rate mode                    : Constant
Bit rate                         : 128 Kbps
Channel(s)                       : 2 channels
Sampling rate                    : 48.0 KHz
Compression mode                 : Lossy
Stream size                      : 103 MiB (15%)
Alignment                        : Aligned on interleaves
Interleave, duration             : 42 ms (1.00 video frame)
Interleave, preload duration     : 504 ms
Writing library                  : LAME3.98r
Encoding settings                : -m s -V 4 -q 2 -lowpass 17 -b 128
[/quote]
Screens :
[img]http://img819.imageshack.us/img819/6643/screenshot2011042122h15.png[/img]

[img]http://img850.imageshack.us/img850/9347/screenshot2011042122h14.png[/img]

[img]http://img843.imageshack.us/img843/9347/screenshot2011042122h14.png[/img]

[img]http://img576.imageshack.us/img576/6643/screenshot2011042122h15.png[/img]

[img]http://img576.imageshack.us/img576/2091/screenshot2011042122h15b.png[/img]



[quote]
# Latest codecs used to deliver Top Quality Releases
# Seeded at high speeds to grant super Download speeds
# All DivX/XviD Players compatible and also PS3, Popcorn Hour, WD & XBOX 360*
[/quote]

[code]
Seedboxes provided by   http://www.chociz.com/
A seedbox is a private dedicated server used for the uploading and downloading of digital files.
Speed - You can sit back, relax and watch in amazement at how fast the torrents finish. 
Secure and Safe - With a seedbox, you don’t even need to use a BitTorrent client on your home computer!
Use Private Trackers -  You can register @ Private Trackers and seed like Hell!

Get a Cheap Seedbox choosing for your taste - [url]http://www.chociz.com/whmcs/cart.php[/url]
[/code]

